<svg viewBox="0 0 64 64" xmlns="http://www.w3.org/2000/svg">
  <defs>
    <linearGradient id="gCloud" x1="0" y1="0" x2="0" y2="1">
      <stop offset="0%" stop-color="#B0BEC5"></stop><stop offset="100%" stop-color="#546E7A"></stop>
    </linearGradient>
    <linearGradient id="gDrop" x1="0" y1="0" x2="0" y2="1">
      <stop offset="0%" stop-color="#29B6F6"></stop><stop offset="100%" stop-color="#004D80"></stop>
    </linearGradient>
  </defs>
  <g fill="url(#gCloud)" stroke="#222" stroke-width="2">
    <ellipse cx="40" cy="30" rx="16" ry="12"></ellipse>
    <ellipse cx="24" cy="32" rx="12" ry="10"></ellipse>
    <rect x="16" y="32" width="36" height="14" rx="7"></rect>
  </g>
  <g fill="url(#gDrop)" stroke="#222" stroke-width="1">
    <path d="M18 52c2-5 4-7 4-9a3 3 0 0 0-6 0c0 2 2 4 2 9z"></path>
    <path d="M28 60c2-5 4-7 4-9a3 3 0 0 0-6 0c0 2 2 4 2 9z"></path>
    <path d="M38 52c2-5 4-7 4-9a3 3 0 0 0-6 0c0 2 2 4 2 9z"></path>
    <path d="M48 60c2-5 4-7 4-9a3 3 0 0 0-6 0c0 2 2 4 2 9z"></path>
  </g>
</svg>
