<svg viewBox="0 0 64 64" xmlns="http://www.w3.org/2000/svg">
  <defs>
    <linearGradient id="gCloud" x1="0" y1="0" x2="0" y2="1">
      <stop offset="0%" stop-color="#B0BEC5"></stop><stop offset="100%" stop-color="#607D8B"></stop>
    </linearGradient>
  </defs>
  <g fill="url(#gCloud)" stroke="#222" stroke-width="2">
    <ellipse cx="40" cy="30" rx="16" ry="12"></ellipse>
    <ellipse cx="24" cy="32" rx="12" ry="10"></ellipse>
    <rect x="16" y="32" width="36" height="14" rx="7"></rect>
  </g>
  <g stroke="#42A5F5" stroke-width="2" stroke-linecap="round">
    <g transform="translate(0,2)">
      <g><line x1="18" y1="50" x2="18" y2="56"></line><line x1="15" y1="53" x2="21" y2="53"></line><line x1="16" y1="51" x2="20" y2="55"></line><line x1="20" y1="51" x2="16" y2="55"></line></g>
      <g><line x1="26" y1="58" x2="26" y2="64"></line><line x1="23" y1="61" x2="29" y2="61"></line><line x1="24" y1="59" x2="28" y2="63"></line><line x1="28" y1="59" x2="24" y2="63"></line></g>
      <g><line x1="34" y1="52" x2="34" y2="58"></line><line x1="31" y1="55" x2="37" y2="55"></line><line x1="32" y1="53" x2="36" y2="57"></line><line x1="36" y1="53" x2="32" y2="57"></line></g>
      <g><line x1="42" y1="58" x2="42" y2="64"></line><line x1="39" y1="61" x2="45" y2="61"></line><line x1="40" y1="59" x2="44" y2="63"></line><line x1="44" y1="59" x2="40" y2="63"></line></g>
      <g><line x1="50" y1="52" x2="50" y2="58"></line><line x1="47" y1="55" x2="53" y2="55"></line><line x1="48" y1="53" x2="52" y2="57"></line><line x1="52" y1="53" x2="48" y2="57"></line></g>
    </g>
  </g>
</svg>
